<mxfile host="drawio-plugin" modified="2025-10-09T06:56:05.491Z" agent="Mozilla/5.0 (Windows NT 10.0; Win64; x64) AppleWebKit/537.36 (KHTML, like Gecko) Chrome/122.0.0.0 Safari/537.36" etag="-Y-bnw1hjBqUEv83tKdR" version="22.1.22" type="embed">
  <diagram id="23iRSUPoRavnBvh4doch" name="Page-1">
    <mxGraphModel dx="5613" dy="2860" grid="0" gridSize="10" guides="1" tooltips="1" connect="1" arrows="1" fold="1" page="0" pageScale="1" pageWidth="827" pageHeight="1169" background="none" math="0" shadow="0">
      <root>
        <mxCell id="0" />
        <mxCell id="1" parent="0" />
        <mxCell id="2" value="&lt;font style=&quot;font-size: 20px;&quot;&gt;Report Analyst&lt;/font&gt;" style="shape=umlActor;verticalLabelPosition=bottom;verticalAlign=top;html=1;outlineConnect=0;" parent="1" vertex="1">
          <mxGeometry x="-560" y="730" width="100" height="190" as="geometry" />
        </mxCell>
        <mxCell id="52" value="&lt;font style=&quot;font-size: 20px;&quot;&gt;World Population DB&lt;/font&gt;" style="shape=datastore;whiteSpace=wrap;html=1;fillColor=#519e47;" parent="1" vertex="1">
          <mxGeometry x="1300" y="629" width="450" height="514" as="geometry" />
        </mxCell>
        <mxCell id="100" value="World Population System" style="shape=umlFrame;whiteSpace=wrap;html=1;pointerEvents=0;recursiveResize=0;container=1;collapsible=0;width=160;" parent="1" vertex="1">
          <mxGeometry y="-410" width="880" height="2563" as="geometry" />
        </mxCell>
        <mxCell id="47" value="Display most spoken language by Population" style="ellipse;whiteSpace=wrap;html=1;" parent="100" vertex="1">
          <mxGeometry x="531.5" y="2411" width="210" height="50" as="geometry" />
        </mxCell>
        <mxCell id="8" value="&lt;br&gt;Generate Language Reports" style="ellipse;whiteSpace=wrap;html=1;fillColor=#ffcd28;gradientColor=#ffa500;strokeColor=#d79b00;" parent="100" vertex="1">
          <mxGeometry x="216.5" y="2388" width="190" height="80" as="geometry" />
        </mxCell>
        <mxCell id="93" value="&amp;lt;&amp;lt;include&amp;gt;&amp;gt;" style="html=1;verticalAlign=bottom;labelBackgroundColor=none;endArrow=open;endFill=0;dashed=1;rounded=0;exitX=1;exitY=0.5;exitDx=0;exitDy=0;" parent="100" source="8" edge="1" target="47">
          <mxGeometry width="160" relative="1" as="geometry">
            <mxPoint x="478.5" y="2353" as="sourcePoint" />
            <mxPoint x="568.5" y="2353" as="targetPoint" />
          </mxGeometry>
        </mxCell>
        <mxCell id="7" value="&lt;br&gt;Generate Population Reports" style="ellipse;whiteSpace=wrap;html=1;fillColor=#e6d0de;gradientColor=#d5739d;strokeColor=#996185;" parent="100" vertex="1">
          <mxGeometry x="58" y="1944" width="170" height="80" as="geometry" />
        </mxCell>
        <mxCell id="35" value="&lt;span data-end=&quot;2373&quot; data-start=&quot;2336&quot;&gt;Display city and non-city population &lt;br&gt;by continent&lt;/span&gt;" style="ellipse;whiteSpace=wrap;html=1;" parent="100" vertex="1">
          <mxGeometry x="403" y="1689" width="210" height="50" as="geometry" />
        </mxCell>
        <mxCell id="36" value="&lt;span data-end=&quot;2373&quot; data-start=&quot;2336&quot;&gt;Display city and non-city population&amp;nbsp;&lt;br&gt;by region&lt;br&gt;&lt;/span&gt;" style="ellipse;whiteSpace=wrap;html=1;" parent="100" vertex="1">
          <mxGeometry x="403" y="1759" width="210" height="50" as="geometry" />
        </mxCell>
        <mxCell id="37" value="Display city and non-city population&amp;nbsp;&lt;br style=&quot;border-color: var(--border-color);&quot;&gt;by country" style="ellipse;whiteSpace=wrap;html=1;" parent="100" vertex="1">
          <mxGeometry x="403" y="1829" width="210" height="50" as="geometry" />
        </mxCell>
        <mxCell id="38" value="&lt;span data-end=&quot;2373&quot; data-start=&quot;2336&quot;&gt;Display Population of the world&lt;/span&gt;" style="ellipse;whiteSpace=wrap;html=1;" parent="100" vertex="1">
          <mxGeometry x="403" y="1899" width="210" height="50" as="geometry" />
        </mxCell>
        <mxCell id="39" value="&lt;span data-end=&quot;2781&quot; data-start=&quot;2744&quot;&gt;Display Population of a Continent&lt;/span&gt;" style="ellipse;whiteSpace=wrap;html=1;" parent="100" vertex="1">
          <mxGeometry x="403" y="1979" width="210" height="50" as="geometry" />
        </mxCell>
        <mxCell id="40" value="&lt;span data-end=&quot;2781&quot; data-start=&quot;2744&quot;&gt;Display Population of a Country&lt;/span&gt;" style="ellipse;whiteSpace=wrap;html=1;" parent="100" vertex="1">
          <mxGeometry x="403" y="2119" width="210" height="50" as="geometry" />
        </mxCell>
        <mxCell id="44" value="&lt;span data-end=&quot;2781&quot; data-start=&quot;2744&quot;&gt;Display Population of a Region&lt;/span&gt;" style="ellipse;whiteSpace=wrap;html=1;" parent="100" vertex="1">
          <mxGeometry x="403" y="2049" width="210" height="50" as="geometry" />
        </mxCell>
        <mxCell id="45" value="&lt;span data-end=&quot;2781&quot; data-start=&quot;2744&quot;&gt;Display Population of a District&lt;/span&gt;" style="ellipse;whiteSpace=wrap;html=1;" parent="100" vertex="1">
          <mxGeometry x="403" y="2189" width="210" height="50" as="geometry" />
        </mxCell>
        <mxCell id="46" value="&lt;span data-end=&quot;2781&quot; data-start=&quot;2744&quot;&gt;Display Population of a City&lt;/span&gt;" style="ellipse;whiteSpace=wrap;html=1;" parent="100" vertex="1">
          <mxGeometry x="403" y="2259" width="210" height="50" as="geometry" />
        </mxCell>
        <mxCell id="84" value="&amp;lt;&amp;lt;include&amp;gt;&amp;gt;" style="html=1;verticalAlign=bottom;labelBackgroundColor=none;endArrow=open;endFill=0;dashed=1;rounded=0;entryX=0;entryY=0.5;entryDx=0;entryDy=0;exitX=1;exitY=0.5;exitDx=0;exitDy=0;" parent="100" source="7" target="35" edge="1">
          <mxGeometry width="160" relative="1" as="geometry">
            <mxPoint x="128" y="1939" as="sourcePoint" />
            <mxPoint x="288" y="1939" as="targetPoint" />
          </mxGeometry>
        </mxCell>
        <mxCell id="85" value="&amp;lt;&amp;lt;include&amp;gt;&amp;gt;" style="html=1;verticalAlign=bottom;labelBackgroundColor=none;endArrow=open;endFill=0;dashed=1;rounded=0;entryX=0;entryY=0.5;entryDx=0;entryDy=0;exitX=1;exitY=0.5;exitDx=0;exitDy=0;" parent="100" source="7" target="36" edge="1">
          <mxGeometry width="160" relative="1" as="geometry">
            <mxPoint x="178" y="1889" as="sourcePoint" />
            <mxPoint x="338" y="1889" as="targetPoint" />
          </mxGeometry>
        </mxCell>
        <mxCell id="86" value="&amp;lt;&amp;lt;include&amp;gt;&amp;gt;" style="html=1;verticalAlign=bottom;labelBackgroundColor=none;endArrow=open;endFill=0;dashed=1;rounded=0;exitX=1;exitY=0.5;exitDx=0;exitDy=0;entryX=0;entryY=0.5;entryDx=0;entryDy=0;" parent="100" source="7" target="37" edge="1">
          <mxGeometry width="160" relative="1" as="geometry">
            <mxPoint x="178" y="1889" as="sourcePoint" />
            <mxPoint x="338" y="1889" as="targetPoint" />
          </mxGeometry>
        </mxCell>
        <mxCell id="87" value="&amp;lt;&amp;lt;include&amp;gt;&amp;gt;" style="html=1;verticalAlign=bottom;labelBackgroundColor=none;endArrow=open;endFill=0;dashed=1;rounded=0;exitX=1;exitY=0.5;exitDx=0;exitDy=0;entryX=0;entryY=0.5;entryDx=0;entryDy=0;" parent="100" source="7" target="38" edge="1">
          <mxGeometry width="160" relative="1" as="geometry">
            <mxPoint x="178" y="1889" as="sourcePoint" />
            <mxPoint x="338" y="1889" as="targetPoint" />
          </mxGeometry>
        </mxCell>
        <mxCell id="88" value="&amp;lt;&amp;lt;include&amp;gt;&amp;gt;" style="html=1;verticalAlign=bottom;labelBackgroundColor=none;endArrow=open;endFill=0;dashed=1;rounded=0;entryX=0;entryY=0.5;entryDx=0;entryDy=0;exitX=1;exitY=0.5;exitDx=0;exitDy=0;" parent="100" source="7" target="39" edge="1">
          <mxGeometry width="160" relative="1" as="geometry">
            <mxPoint x="228" y="1979" as="sourcePoint" />
            <mxPoint x="338" y="1889" as="targetPoint" />
          </mxGeometry>
        </mxCell>
        <mxCell id="89" value="&amp;lt;&amp;lt;include&amp;gt;&amp;gt;" style="html=1;verticalAlign=bottom;labelBackgroundColor=none;endArrow=open;endFill=0;dashed=1;rounded=0;exitX=1;exitY=0.5;exitDx=0;exitDy=0;entryX=0;entryY=0.5;entryDx=0;entryDy=0;" parent="100" source="7" target="44" edge="1">
          <mxGeometry width="160" relative="1" as="geometry">
            <mxPoint x="188" y="1899" as="sourcePoint" />
            <mxPoint x="348" y="1899" as="targetPoint" />
          </mxGeometry>
        </mxCell>
        <mxCell id="90" value="&amp;lt;&amp;lt;include&amp;gt;&amp;gt;" style="html=1;verticalAlign=bottom;labelBackgroundColor=none;endArrow=open;endFill=0;dashed=1;rounded=0;exitX=1;exitY=0.5;exitDx=0;exitDy=0;entryX=0;entryY=0.5;entryDx=0;entryDy=0;" parent="100" source="7" target="40" edge="1">
          <mxGeometry width="160" relative="1" as="geometry">
            <mxPoint x="188" y="1899" as="sourcePoint" />
            <mxPoint x="348" y="1899" as="targetPoint" />
          </mxGeometry>
        </mxCell>
        <mxCell id="91" value="&amp;lt;&amp;lt;include&amp;gt;&amp;gt;" style="html=1;verticalAlign=bottom;labelBackgroundColor=none;endArrow=open;endFill=0;dashed=1;rounded=0;entryX=0;entryY=0.5;entryDx=0;entryDy=0;" parent="100" target="45" edge="1">
          <mxGeometry width="160" relative="1" as="geometry">
            <mxPoint x="228" y="1989" as="sourcePoint" />
            <mxPoint x="348" y="2119" as="targetPoint" />
          </mxGeometry>
        </mxCell>
        <mxCell id="92" value="&amp;lt;&amp;lt;include&amp;gt;&amp;gt;" style="html=1;verticalAlign=bottom;labelBackgroundColor=none;endArrow=open;endFill=0;dashed=1;rounded=0;entryX=0;entryY=0.5;entryDx=0;entryDy=0;exitX=0.985;exitY=0.566;exitDx=0;exitDy=0;exitPerimeter=0;" parent="100" source="7" target="46" edge="1">
          <mxGeometry width="160" relative="1" as="geometry">
            <mxPoint x="168" y="2089" as="sourcePoint" />
            <mxPoint x="328" y="2089" as="targetPoint" />
          </mxGeometry>
        </mxCell>
        <mxCell id="6" value="&lt;br&gt;Generate Capital City Reports" style="ellipse;whiteSpace=wrap;html=1;fillColor=#f8cecc;strokeColor=#b85450;gradientColor=#ea6b66;" parent="100" vertex="1">
          <mxGeometry x="184" y="1382" width="170" height="80" as="geometry" />
        </mxCell>
        <mxCell id="28" value="&lt;span data-end=&quot;830&quot; data-start=&quot;807&quot;&gt;Retrieve All Capital Cities in the World&lt;/span&gt;" style="ellipse;whiteSpace=wrap;html=1;" parent="100" vertex="1">
          <mxGeometry x="524" y="1217" width="200" height="50" as="geometry" />
        </mxCell>
        <mxCell id="29" value="&lt;span data-end=&quot;916&quot; data-start=&quot;884&quot;&gt;Retrieve Capital Cities by Continent&lt;/span&gt;" style="ellipse;whiteSpace=wrap;html=1;" parent="100" vertex="1">
          <mxGeometry x="524" y="1287" width="200" height="52" as="geometry" />
        </mxCell>
        <mxCell id="30" value="&#xa;Retrieve Capital Cities by Region&#xa;&#xa;" style="ellipse;whiteSpace=wrap;html=1;" parent="100" vertex="1">
          <mxGeometry x="524" y="1357" width="200" height="50" as="geometry" />
        </mxCell>
        <mxCell id="31" value="&lt;span data-end=&quot;1226&quot; data-start=&quot;1196&quot;&gt;List Top N Capital Cities &lt;br&gt;in the World&lt;/span&gt;" style="ellipse;whiteSpace=wrap;html=1;" parent="100" vertex="1">
          <mxGeometry x="524" y="1426" width="200" height="50" as="geometry" />
        </mxCell>
        <mxCell id="32" value="List Top N Capital Cities in Continent" style="ellipse;whiteSpace=wrap;html=1;" parent="100" vertex="1">
          <mxGeometry x="534" y="1495.5" width="200" height="50" as="geometry" />
        </mxCell>
        <mxCell id="33" value="&lt;span data-end=&quot;1412&quot; data-start=&quot;1381&quot;&gt;List Top N Capital Cities in Region&lt;/span&gt;" style="ellipse;whiteSpace=wrap;html=1;" parent="100" vertex="1">
          <mxGeometry x="534" y="1566" width="200" height="50" as="geometry" />
        </mxCell>
        <mxCell id="77" value="&amp;lt;&amp;lt;include&amp;gt;&amp;gt;" style="html=1;verticalAlign=bottom;labelBackgroundColor=none;endArrow=open;endFill=0;dashed=1;rounded=0;exitX=1;exitY=0.5;exitDx=0;exitDy=0;entryX=0;entryY=0.5;entryDx=0;entryDy=0;" parent="100" source="6" target="28" edge="1">
          <mxGeometry width="160" relative="1" as="geometry">
            <mxPoint x="214" y="1400" as="sourcePoint" />
            <mxPoint x="374" y="1400" as="targetPoint" />
          </mxGeometry>
        </mxCell>
        <mxCell id="78" value="&amp;lt;&amp;lt;include&amp;gt;&amp;gt;" style="html=1;verticalAlign=bottom;labelBackgroundColor=none;endArrow=open;endFill=0;dashed=1;rounded=0;entryX=0;entryY=0.5;entryDx=0;entryDy=0;exitX=1;exitY=0.5;exitDx=0;exitDy=0;" parent="100" source="6" target="29" edge="1">
          <mxGeometry width="160" relative="1" as="geometry">
            <mxPoint x="214" y="1400" as="sourcePoint" />
            <mxPoint x="374" y="1400" as="targetPoint" />
          </mxGeometry>
        </mxCell>
        <mxCell id="79" value="&amp;lt;&amp;lt;include&amp;gt;&amp;gt;" style="html=1;verticalAlign=bottom;labelBackgroundColor=none;endArrow=open;endFill=0;dashed=1;rounded=0;entryX=0;entryY=0.5;entryDx=0;entryDy=0;" parent="100" target="30" edge="1">
          <mxGeometry width="160" relative="1" as="geometry">
            <mxPoint x="354" y="1420" as="sourcePoint" />
            <mxPoint x="434" y="1370" as="targetPoint" />
          </mxGeometry>
        </mxCell>
        <mxCell id="80" value="&amp;lt;&amp;lt;include&amp;gt;&amp;gt;" style="html=1;verticalAlign=bottom;labelBackgroundColor=none;endArrow=open;endFill=0;dashed=1;rounded=0;exitX=1;exitY=0.5;exitDx=0;exitDy=0;entryX=0;entryY=0.5;entryDx=0;entryDy=0;" parent="100" source="6" target="31" edge="1">
          <mxGeometry width="160" relative="1" as="geometry">
            <mxPoint x="274" y="1370" as="sourcePoint" />
            <mxPoint x="434" y="1370" as="targetPoint" />
          </mxGeometry>
        </mxCell>
        <mxCell id="81" value="&amp;lt;&amp;lt;include&amp;gt;&amp;gt;" style="html=1;verticalAlign=bottom;labelBackgroundColor=none;endArrow=open;endFill=0;dashed=1;rounded=0;exitX=1;exitY=0.5;exitDx=0;exitDy=0;entryX=0;entryY=0.5;entryDx=0;entryDy=0;" parent="100" source="6" target="32" edge="1">
          <mxGeometry width="160" relative="1" as="geometry">
            <mxPoint x="274" y="1280" as="sourcePoint" />
            <mxPoint x="434" y="1280" as="targetPoint" />
          </mxGeometry>
        </mxCell>
        <mxCell id="82" value="&amp;lt;&amp;lt;include&amp;gt;&amp;gt;" style="html=1;verticalAlign=bottom;labelBackgroundColor=none;endArrow=open;endFill=0;dashed=1;rounded=0;exitX=1;exitY=0.5;exitDx=0;exitDy=0;entryX=0;entryY=0.5;entryDx=0;entryDy=0;" parent="100" source="6" target="33" edge="1">
          <mxGeometry width="160" relative="1" as="geometry">
            <mxPoint x="274" y="1280" as="sourcePoint" />
            <mxPoint x="434" y="1280" as="targetPoint" />
          </mxGeometry>
        </mxCell>
        <mxCell id="5" value="&lt;br&gt;Generate City Reports&lt;br&gt;" style="ellipse;whiteSpace=wrap;html=1;fillColor=#d5e8d4;gradientColor=#97d077;strokeColor=#82b366;" parent="100" vertex="1">
          <mxGeometry x="41" y="704" width="170" height="80" as="geometry" />
        </mxCell>
        <mxCell id="16" value="&lt;span data-end=&quot;830&quot; data-start=&quot;807&quot;&gt;Retrieve All Cities in the World&lt;/span&gt;" style="ellipse;whiteSpace=wrap;html=1;" parent="100" vertex="1">
          <mxGeometry x="379" y="524" width="200" height="50" as="geometry" />
        </mxCell>
        <mxCell id="17" value="&lt;span data-end=&quot;916&quot; data-start=&quot;884&quot;&gt;Retrieve Cities by Continent&lt;/span&gt;" style="ellipse;whiteSpace=wrap;html=1;" parent="100" vertex="1">
          <mxGeometry x="381" y="591" width="200" height="50" as="geometry" />
        </mxCell>
        <mxCell id="19" value="&lt;span data-end=&quot;916&quot; data-start=&quot;884&quot;&gt;Retrieve Cities by Region&lt;/span&gt;" style="ellipse;whiteSpace=wrap;html=1;" parent="100" vertex="1">
          <mxGeometry x="381" y="671" width="200" height="50" as="geometry" />
        </mxCell>
        <mxCell id="21" value="&lt;span data-end=&quot;1070&quot; data-start=&quot;1040&quot;&gt;Retrieve Cities by Country&lt;/span&gt;" style="ellipse;whiteSpace=wrap;html=1;" parent="100" vertex="1">
          <mxGeometry x="381" y="741" width="200" height="50" as="geometry" />
        </mxCell>
        <mxCell id="22" value="&lt;span data-end=&quot;1148&quot; data-start=&quot;1117&quot;&gt;Retrieve Cities by District&lt;/span&gt;" style="ellipse;whiteSpace=wrap;html=1;" parent="100" vertex="1">
          <mxGeometry x="381" y="811" width="200" height="50" as="geometry" />
        </mxCell>
        <mxCell id="23" value="&lt;span data-end=&quot;1226&quot; data-start=&quot;1196&quot;&gt;List Top N Cities in the World&lt;/span&gt;" style="ellipse;whiteSpace=wrap;html=1;" parent="100" vertex="1">
          <mxGeometry x="381" y="886" width="200" height="50" as="geometry" />
        </mxCell>
        <mxCell id="24" value="List Top N Cities in Continent" style="ellipse;whiteSpace=wrap;html=1;" parent="100" vertex="1">
          <mxGeometry x="381" y="951" width="200" height="50" as="geometry" />
        </mxCell>
        <mxCell id="25" value="&lt;span data-end=&quot;1412&quot; data-start=&quot;1381&quot;&gt;List Top N Cities in Region&lt;/span&gt;" style="ellipse;whiteSpace=wrap;html=1;" parent="100" vertex="1">
          <mxGeometry x="381" y="1021" width="200" height="50" as="geometry" />
        </mxCell>
        <mxCell id="26" value="&lt;span data-end=&quot;1504&quot; data-start=&quot;1472&quot;&gt;List Top N Cities in Country&lt;/span&gt;" style="ellipse;whiteSpace=wrap;html=1;" parent="100" vertex="1">
          <mxGeometry x="391" y="1081" width="200" height="50" as="geometry" />
        </mxCell>
        <mxCell id="27" value="&lt;span data-end=&quot;1598&quot; data-start=&quot;1565&quot;&gt;List Top N Cities in District&lt;/span&gt;" style="ellipse;whiteSpace=wrap;html=1;" parent="100" vertex="1">
          <mxGeometry x="394" y="1148" width="200" height="50" as="geometry" />
        </mxCell>
        <mxCell id="67" value="&amp;lt;&amp;lt;include&amp;gt;&amp;gt;" style="html=1;verticalAlign=bottom;labelBackgroundColor=none;endArrow=open;endFill=0;dashed=1;rounded=0;exitX=1;exitY=0.5;exitDx=0;exitDy=0;entryX=0;entryY=0.5;entryDx=0;entryDy=0;" parent="100" source="5" edge="1">
          <mxGeometry width="160" relative="1" as="geometry">
            <mxPoint x="181" y="451" as="sourcePoint" />
            <mxPoint x="381" y="546" as="targetPoint" />
          </mxGeometry>
        </mxCell>
        <mxCell id="68" value="&amp;lt;&amp;lt;include&amp;gt;&amp;gt;" style="html=1;verticalAlign=bottom;labelBackgroundColor=none;endArrow=open;endFill=0;dashed=1;rounded=0;exitX=1;exitY=0.5;exitDx=0;exitDy=0;entryX=0;entryY=0.5;entryDx=0;entryDy=0;" parent="100" source="5" target="17" edge="1">
          <mxGeometry width="160" relative="1" as="geometry">
            <mxPoint x="181" y="451" as="sourcePoint" />
            <mxPoint x="341" y="451" as="targetPoint" />
          </mxGeometry>
        </mxCell>
        <mxCell id="69" value="&amp;lt;&amp;lt;include&amp;gt;&amp;gt;" style="html=1;verticalAlign=bottom;labelBackgroundColor=none;endArrow=open;endFill=0;dashed=1;rounded=0;exitX=1;exitY=0.5;exitDx=0;exitDy=0;entryX=0;entryY=0.5;entryDx=0;entryDy=0;" parent="100" source="5" target="19" edge="1">
          <mxGeometry width="160" relative="1" as="geometry">
            <mxPoint x="181" y="671" as="sourcePoint" />
            <mxPoint x="341" y="671" as="targetPoint" />
          </mxGeometry>
        </mxCell>
        <mxCell id="70" value="&amp;lt;&amp;lt;include&amp;gt;&amp;gt;" style="html=1;verticalAlign=bottom;labelBackgroundColor=none;endArrow=open;endFill=0;dashed=1;rounded=0;exitX=1;exitY=0.5;exitDx=0;exitDy=0;entryX=0;entryY=0.5;entryDx=0;entryDy=0;" parent="100" source="5" target="21" edge="1">
          <mxGeometry width="160" relative="1" as="geometry">
            <mxPoint x="211" y="741" as="sourcePoint" />
            <mxPoint x="341" y="671" as="targetPoint" />
          </mxGeometry>
        </mxCell>
        <mxCell id="71" value="&amp;lt;&amp;lt;include&amp;gt;&amp;gt;" style="html=1;verticalAlign=bottom;labelBackgroundColor=none;endArrow=open;endFill=0;dashed=1;rounded=0;exitX=1;exitY=0.5;exitDx=0;exitDy=0;entryX=0;entryY=0.5;entryDx=0;entryDy=0;" parent="100" source="5" target="22" edge="1">
          <mxGeometry width="160" relative="1" as="geometry">
            <mxPoint x="181" y="671" as="sourcePoint" />
            <mxPoint x="341" y="671" as="targetPoint" />
          </mxGeometry>
        </mxCell>
        <mxCell id="72" value="&amp;lt;&amp;lt;include&amp;gt;&amp;gt;" style="html=1;verticalAlign=bottom;labelBackgroundColor=none;endArrow=open;endFill=0;dashed=1;rounded=0;entryX=0;entryY=0.5;entryDx=0;entryDy=0;" parent="100" target="23" edge="1">
          <mxGeometry width="160" relative="1" as="geometry">
            <mxPoint x="211" y="741" as="sourcePoint" />
            <mxPoint x="341" y="671" as="targetPoint" />
          </mxGeometry>
        </mxCell>
        <mxCell id="73" value="&amp;lt;&amp;lt;include&amp;gt;&amp;gt;" style="html=1;verticalAlign=bottom;labelBackgroundColor=none;endArrow=open;endFill=0;dashed=1;rounded=0;exitX=1;exitY=0.5;exitDx=0;exitDy=0;entryX=0;entryY=0.5;entryDx=0;entryDy=0;" parent="100" source="5" target="24" edge="1">
          <mxGeometry width="160" relative="1" as="geometry">
            <mxPoint x="181" y="671" as="sourcePoint" />
            <mxPoint x="341" y="671" as="targetPoint" />
          </mxGeometry>
        </mxCell>
        <mxCell id="74" value="&amp;lt;&amp;lt;include&amp;gt;&amp;gt;" style="html=1;verticalAlign=bottom;labelBackgroundColor=none;endArrow=open;endFill=0;dashed=1;rounded=0;exitX=1;exitY=0.5;exitDx=0;exitDy=0;entryX=0;entryY=0.5;entryDx=0;entryDy=0;" parent="100" source="5" target="25" edge="1">
          <mxGeometry width="160" relative="1" as="geometry">
            <mxPoint x="181" y="671" as="sourcePoint" />
            <mxPoint x="341" y="671" as="targetPoint" />
          </mxGeometry>
        </mxCell>
        <mxCell id="75" value="&amp;lt;&amp;lt;include&amp;gt;&amp;gt;" style="html=1;verticalAlign=bottom;labelBackgroundColor=none;endArrow=open;endFill=0;dashed=1;rounded=0;exitX=1;exitY=0.5;exitDx=0;exitDy=0;entryX=0;entryY=0.5;entryDx=0;entryDy=0;" parent="100" source="5" target="26" edge="1">
          <mxGeometry width="160" relative="1" as="geometry">
            <mxPoint x="181" y="1131" as="sourcePoint" />
            <mxPoint x="341" y="1131" as="targetPoint" />
          </mxGeometry>
        </mxCell>
        <mxCell id="76" value="&amp;lt;&amp;lt;include&amp;gt;&amp;gt;" style="html=1;verticalAlign=bottom;labelBackgroundColor=none;endArrow=open;endFill=0;dashed=1;rounded=0;exitX=1;exitY=0.5;exitDx=0;exitDy=0;entryX=0;entryY=0.5;entryDx=0;entryDy=0;" parent="100" source="5" target="27" edge="1">
          <mxGeometry width="160" relative="1" as="geometry">
            <mxPoint x="241" y="1121" as="sourcePoint" />
            <mxPoint x="381" y="1166" as="targetPoint" />
          </mxGeometry>
        </mxCell>
        <mxCell id="4" value="&#xa;Generate Country Reports&#xa;&#xa;" style="ellipse;whiteSpace=wrap;html=1;fillColor=#dae8fc;strokeColor=#6c8ebf;gradientColor=#7ea6e0;" parent="100" vertex="1">
          <mxGeometry x="205" y="199" width="170" height="86" as="geometry" />
        </mxCell>
        <mxCell id="10" value="&lt;br&gt;Retrieve All Countries &lt;br&gt;in the world" style="ellipse;whiteSpace=wrap;html=1;" parent="100" vertex="1">
          <mxGeometry x="545" y="103" width="200" height="50" as="geometry" />
        </mxCell>
        <mxCell id="11" value="Retrieve Countries by Continent" style="ellipse;whiteSpace=wrap;html=1;" parent="100" vertex="1">
          <mxGeometry x="545" y="173" width="200" height="50" as="geometry" />
        </mxCell>
        <mxCell id="12" value="Retrieve Countries by Region" style="ellipse;whiteSpace=wrap;html=1;" parent="100" vertex="1">
          <mxGeometry x="545" y="243" width="200" height="50" as="geometry" />
        </mxCell>
        <mxCell id="13" value="&lt;span data-end=&quot;499&quot; data-start=&quot;466&quot;&gt;List Top N Countries in the World&lt;/span&gt;" style="ellipse;whiteSpace=wrap;html=1;" parent="100" vertex="1">
          <mxGeometry x="545" y="313" width="200" height="50" as="geometry" />
        </mxCell>
        <mxCell id="14" value="&lt;span data-end=&quot;499&quot; data-start=&quot;466&quot;&gt;List Top N Countries in Continent&lt;/span&gt;" style="ellipse;whiteSpace=wrap;html=1;" parent="100" vertex="1">
          <mxGeometry x="545" y="383" width="200" height="50" as="geometry" />
        </mxCell>
        <mxCell id="15" value="&lt;span data-end=&quot;499&quot; data-start=&quot;466&quot;&gt;List Top N Countries in Region&lt;/span&gt;" style="ellipse;whiteSpace=wrap;html=1;" parent="100" vertex="1">
          <mxGeometry x="545" y="449" width="200" height="50" as="geometry" />
        </mxCell>
        <mxCell id="61" value="&amp;lt;&amp;lt;include&amp;gt;&amp;gt;" style="html=1;verticalAlign=bottom;labelBackgroundColor=none;endArrow=open;endFill=0;dashed=1;rounded=0;entryX=0;entryY=0.5;entryDx=0;entryDy=0;exitX=1.008;exitY=0.449;exitDx=0;exitDy=0;exitPerimeter=0;" parent="100" source="4" target="10" edge="1">
          <mxGeometry width="160" relative="1" as="geometry">
            <mxPoint x="425" y="239" as="sourcePoint" />
            <mxPoint x="705" y="359" as="targetPoint" />
          </mxGeometry>
        </mxCell>
        <mxCell id="62" value="&amp;lt;&amp;lt;include&amp;gt;&amp;gt;" style="html=1;verticalAlign=bottom;labelBackgroundColor=none;endArrow=open;endFill=0;dashed=1;rounded=0;exitX=1;exitY=0.5;exitDx=0;exitDy=0;entryX=0;entryY=0.5;entryDx=0;entryDy=0;" parent="100" source="4" target="11" edge="1">
          <mxGeometry width="160" relative="1" as="geometry">
            <mxPoint x="545" y="359" as="sourcePoint" />
            <mxPoint x="705" y="359" as="targetPoint" />
          </mxGeometry>
        </mxCell>
        <mxCell id="63" value="&amp;lt;&amp;lt;include&amp;gt;&amp;gt;" style="html=1;verticalAlign=bottom;labelBackgroundColor=none;endArrow=open;endFill=0;dashed=1;rounded=0;exitX=1;exitY=0.5;exitDx=0;exitDy=0;entryX=0;entryY=0.5;entryDx=0;entryDy=0;" parent="100" source="4" target="12" edge="1">
          <mxGeometry width="160" relative="1" as="geometry">
            <mxPoint x="545" y="359" as="sourcePoint" />
            <mxPoint x="705" y="359" as="targetPoint" />
          </mxGeometry>
        </mxCell>
        <mxCell id="64" value="&amp;lt;&amp;lt;include&amp;gt;&amp;gt;" style="html=1;verticalAlign=bottom;labelBackgroundColor=none;endArrow=open;endFill=0;dashed=1;rounded=0;exitX=1;exitY=0.5;exitDx=0;exitDy=0;entryX=0;entryY=0.5;entryDx=0;entryDy=0;" parent="100" source="4" target="13" edge="1">
          <mxGeometry width="160" relative="1" as="geometry">
            <mxPoint x="395" y="309" as="sourcePoint" />
            <mxPoint x="555" y="309" as="targetPoint" />
          </mxGeometry>
        </mxCell>
        <mxCell id="65" value="&amp;lt;&amp;lt;include&amp;gt;&amp;gt;" style="html=1;verticalAlign=bottom;labelBackgroundColor=none;endArrow=open;endFill=0;dashed=1;rounded=0;exitX=1;exitY=0.5;exitDx=0;exitDy=0;entryX=0;entryY=0.5;entryDx=0;entryDy=0;" parent="100" source="4" target="14" edge="1">
          <mxGeometry width="160" relative="1" as="geometry">
            <mxPoint x="395" y="309" as="sourcePoint" />
            <mxPoint x="555" y="309" as="targetPoint" />
          </mxGeometry>
        </mxCell>
        <mxCell id="66" value="&amp;lt;&amp;lt;include&amp;gt;&amp;gt;" style="html=1;verticalAlign=bottom;labelBackgroundColor=none;endArrow=open;endFill=0;dashed=1;rounded=0;exitX=1;exitY=0.5;exitDx=0;exitDy=0;entryX=0;entryY=0.5;entryDx=0;entryDy=0;" parent="100" source="4" target="15" edge="1">
          <mxGeometry width="160" relative="1" as="geometry">
            <mxPoint x="395" y="309" as="sourcePoint" />
            <mxPoint x="555" y="309" as="targetPoint" />
          </mxGeometry>
        </mxCell>
        <mxCell id="101" value="" style="endArrow=none;html=1;rounded=0;entryX=0;entryY=0.5;entryDx=0;entryDy=0;exitX=1;exitY=0.3333333333333333;exitDx=0;exitDy=0;exitPerimeter=0;" parent="100" edge="1">
          <mxGeometry width="50" height="50" relative="1" as="geometry">
            <mxPoint x="-457" y="1204.3333333333335" as="sourcePoint" />
            <mxPoint x="208.0000000000091" y="243" as="targetPoint" />
            <Array as="points" />
          </mxGeometry>
        </mxCell>
        <mxCell id="102" value="" style="endArrow=none;html=1;rounded=0;entryX=0;entryY=0.5;entryDx=0;entryDy=0;exitX=1;exitY=0.3333333333333333;exitDx=0;exitDy=0;exitPerimeter=0;" parent="1" source="2" target="5" edge="1">
          <mxGeometry width="50" height="50" relative="1" as="geometry">
            <mxPoint x="-450" y="800" as="sourcePoint" />
            <mxPoint x="230" y="110" as="targetPoint" />
          </mxGeometry>
        </mxCell>
        <mxCell id="103" value="" style="endArrow=none;html=1;rounded=0;entryX=0;entryY=0.5;entryDx=0;entryDy=0;exitX=1;exitY=0.3333333333333333;exitDx=0;exitDy=0;exitPerimeter=0;" parent="1" source="2" target="6" edge="1">
          <mxGeometry width="50" height="50" relative="1" as="geometry">
            <mxPoint x="-450" y="800" as="sourcePoint" />
            <mxPoint x="230" y="590" as="targetPoint" />
          </mxGeometry>
        </mxCell>
        <mxCell id="104" value="" style="endArrow=none;html=1;rounded=0;entryX=0;entryY=0.5;entryDx=0;entryDy=0;exitX=1;exitY=0.3333333333333333;exitDx=0;exitDy=0;exitPerimeter=0;" parent="1" source="2" target="7" edge="1">
          <mxGeometry width="50" height="50" relative="1" as="geometry">
            <mxPoint x="-450" y="800" as="sourcePoint" />
            <mxPoint x="190" y="960" as="targetPoint" />
          </mxGeometry>
        </mxCell>
        <mxCell id="105" value="" style="endArrow=none;html=1;rounded=0;entryX=1;entryY=0.3333333333333333;entryDx=0;entryDy=0;entryPerimeter=0;exitX=0;exitY=0;exitDx=0;exitDy=0;" parent="1" source="8" target="2" edge="1">
          <mxGeometry width="50" height="50" relative="1" as="geometry">
            <mxPoint x="-280" y="910" as="sourcePoint" />
            <mxPoint x="-230" y="860" as="targetPoint" />
          </mxGeometry>
        </mxCell>
        <mxCell id="109" value="" style="endArrow=none;html=1;rounded=0;exitX=1;exitY=0.5;exitDx=0;exitDy=0;entryX=0.123;entryY=0.035;entryDx=0;entryDy=0;entryPerimeter=0;" parent="1" target="52" edge="1" source="10">
          <mxGeometry width="50" height="50" relative="1" as="geometry">
            <mxPoint x="670.0000000000025" y="-270.2" as="sourcePoint" />
            <mxPoint x="1275" y="494.99999999999983" as="targetPoint" />
          </mxGeometry>
        </mxCell>
        <mxCell id="110" value="" style="endArrow=none;html=1;rounded=0;exitX=1;exitY=0.5;exitDx=0;exitDy=0;entryX=0.125;entryY=0.036;entryDx=0;entryDy=0;entryPerimeter=0;" parent="1" source="11" target="52" edge="1">
          <mxGeometry width="50" height="50" relative="1" as="geometry">
            <mxPoint x="1160" y="440" as="sourcePoint" />
            <mxPoint x="1320" y="490" as="targetPoint" />
          </mxGeometry>
        </mxCell>
        <mxCell id="111" value="" style="endArrow=none;html=1;rounded=0;exitX=1;exitY=0.5;exitDx=0;exitDy=0;entryX=0.127;entryY=0.037;entryDx=0;entryDy=0;entryPerimeter=0;" parent="1" source="12" target="52" edge="1">
          <mxGeometry width="50" height="50" relative="1" as="geometry">
            <mxPoint x="1060" y="430" as="sourcePoint" />
            <mxPoint x="1320" y="490" as="targetPoint" />
          </mxGeometry>
        </mxCell>
        <mxCell id="112" value="" style="endArrow=none;html=1;rounded=0;exitX=1;exitY=0.5;exitDx=0;exitDy=0;entryX=0.127;entryY=0.04;entryDx=0;entryDy=0;entryPerimeter=0;" parent="1" source="13" target="52" edge="1">
          <mxGeometry width="50" height="50" relative="1" as="geometry">
            <mxPoint x="1080" y="410" as="sourcePoint" />
            <mxPoint x="1130" y="360" as="targetPoint" />
          </mxGeometry>
        </mxCell>
        <mxCell id="114" value="" style="endArrow=none;html=1;rounded=0;exitX=1;exitY=0.5;exitDx=0;exitDy=0;entryX=0.125;entryY=0.037;entryDx=0;entryDy=0;entryPerimeter=0;" parent="1" source="15" target="52" edge="1">
          <mxGeometry width="50" height="50" relative="1" as="geometry">
            <mxPoint x="700" y="230" as="sourcePoint" />
            <mxPoint x="1310" y="490" as="targetPoint" />
          </mxGeometry>
        </mxCell>
        <mxCell id="115" value="" style="endArrow=none;html=1;rounded=0;entryX=1;entryY=0.5;entryDx=0;entryDy=0;exitX=0;exitY=0.3;exitDx=0;exitDy=0;" parent="1" source="52" target="16" edge="1">
          <mxGeometry width="50" height="50" relative="1" as="geometry">
            <mxPoint x="630" y="310" as="sourcePoint" />
            <mxPoint x="680" y="260" as="targetPoint" />
          </mxGeometry>
        </mxCell>
        <mxCell id="116" value="" style="endArrow=none;html=1;rounded=0;entryX=0;entryY=0.3;entryDx=0;entryDy=0;exitX=1;exitY=0.5;exitDx=0;exitDy=0;" parent="1" source="17" target="52" edge="1">
          <mxGeometry width="50" height="50" relative="1" as="geometry">
            <mxPoint x="630" y="310" as="sourcePoint" />
            <mxPoint x="680" y="260" as="targetPoint" />
          </mxGeometry>
        </mxCell>
        <mxCell id="117" value="" style="endArrow=none;html=1;rounded=0;exitX=1;exitY=0.5;exitDx=0;exitDy=0;entryX=0;entryY=0.3;entryDx=0;entryDy=0;" parent="1" source="19" target="52" edge="1">
          <mxGeometry width="50" height="50" relative="1" as="geometry">
            <mxPoint x="680" y="260" as="sourcePoint" />
            <mxPoint x="730" y="210" as="targetPoint" />
          </mxGeometry>
        </mxCell>
        <mxCell id="118" value="" style="endArrow=none;html=1;rounded=0;exitX=1;exitY=0.5;exitDx=0;exitDy=0;entryX=0;entryY=0.3;entryDx=0;entryDy=0;" parent="1" source="21" target="52" edge="1">
          <mxGeometry width="50" height="50" relative="1" as="geometry">
            <mxPoint x="680" y="260" as="sourcePoint" />
            <mxPoint x="730" y="210" as="targetPoint" />
          </mxGeometry>
        </mxCell>
        <mxCell id="119" value="" style="endArrow=none;html=1;rounded=0;exitX=1;exitY=0.5;exitDx=0;exitDy=0;entryX=0;entryY=0.3;entryDx=0;entryDy=0;" parent="1" source="22" target="52" edge="1">
          <mxGeometry width="50" height="50" relative="1" as="geometry">
            <mxPoint x="680" y="500" as="sourcePoint" />
            <mxPoint x="1040" y="550" as="targetPoint" />
          </mxGeometry>
        </mxCell>
        <mxCell id="120" value="" style="endArrow=none;html=1;rounded=0;exitX=1;exitY=0.5;exitDx=0;exitDy=0;entryX=0;entryY=0.3;entryDx=0;entryDy=0;" parent="1" source="23" target="52" edge="1">
          <mxGeometry width="50" height="50" relative="1" as="geometry">
            <mxPoint x="740" y="450" as="sourcePoint" />
            <mxPoint x="790" y="400" as="targetPoint" />
          </mxGeometry>
        </mxCell>
        <mxCell id="121" value="" style="endArrow=none;html=1;rounded=0;exitX=1;exitY=0.5;exitDx=0;exitDy=0;entryX=0;entryY=0.3;entryDx=0;entryDy=0;" parent="1" source="24" target="52" edge="1">
          <mxGeometry width="50" height="50" relative="1" as="geometry">
            <mxPoint x="740" y="450" as="sourcePoint" />
            <mxPoint x="790" y="400" as="targetPoint" />
          </mxGeometry>
        </mxCell>
        <mxCell id="122" value="" style="endArrow=none;html=1;rounded=0;exitX=1;exitY=0.5;exitDx=0;exitDy=0;entryX=0;entryY=0.3;entryDx=0;entryDy=0;" parent="1" source="25" target="52" edge="1">
          <mxGeometry width="50" height="50" relative="1" as="geometry">
            <mxPoint x="740" y="450" as="sourcePoint" />
            <mxPoint x="790" y="400" as="targetPoint" />
          </mxGeometry>
        </mxCell>
        <mxCell id="123" value="" style="endArrow=none;html=1;rounded=0;exitX=1;exitY=0.5;exitDx=0;exitDy=0;entryX=0;entryY=0.3;entryDx=0;entryDy=0;" parent="1" source="26" target="52" edge="1">
          <mxGeometry width="50" height="50" relative="1" as="geometry">
            <mxPoint x="740" y="450" as="sourcePoint" />
            <mxPoint x="790" y="400" as="targetPoint" />
          </mxGeometry>
        </mxCell>
        <mxCell id="124" value="" style="endArrow=none;html=1;rounded=0;exitX=1;exitY=0.5;exitDx=0;exitDy=0;entryX=0;entryY=0.3;entryDx=0;entryDy=0;" parent="1" source="27" target="52" edge="1">
          <mxGeometry width="50" height="50" relative="1" as="geometry">
            <mxPoint x="740" y="810" as="sourcePoint" />
            <mxPoint x="990" y="730" as="targetPoint" />
          </mxGeometry>
        </mxCell>
        <mxCell id="125" value="" style="endArrow=none;html=1;rounded=0;exitX=1;exitY=0.5;exitDx=0;exitDy=0;entryX=0;entryY=0.5;entryDx=0;entryDy=0;" parent="1" source="28" target="52" edge="1">
          <mxGeometry width="50" height="50" relative="1" as="geometry">
            <mxPoint x="610" y="700" as="sourcePoint" />
            <mxPoint x="660" y="650" as="targetPoint" />
          </mxGeometry>
        </mxCell>
        <mxCell id="126" value="" style="endArrow=none;html=1;rounded=0;exitX=1;exitY=0.5;exitDx=0;exitDy=0;entryX=0;entryY=0.5;entryDx=0;entryDy=0;" parent="1" source="29" target="52" edge="1">
          <mxGeometry width="50" height="50" relative="1" as="geometry">
            <mxPoint x="570" y="720" as="sourcePoint" />
            <mxPoint x="620" y="670" as="targetPoint" />
          </mxGeometry>
        </mxCell>
        <mxCell id="127" value="" style="endArrow=none;html=1;rounded=0;entryX=0;entryY=0.5;entryDx=0;entryDy=0;exitX=1;exitY=0.5;exitDx=0;exitDy=0;" parent="1" source="30" target="52" edge="1">
          <mxGeometry width="50" height="50" relative="1" as="geometry">
            <mxPoint x="570" y="720" as="sourcePoint" />
            <mxPoint x="620" y="670" as="targetPoint" />
          </mxGeometry>
        </mxCell>
        <mxCell id="128" value="" style="endArrow=none;html=1;rounded=0;exitX=1;exitY=0.5;exitDx=0;exitDy=0;entryX=0;entryY=0.5;entryDx=0;entryDy=0;" parent="1" source="31" target="52" edge="1">
          <mxGeometry width="50" height="50" relative="1" as="geometry">
            <mxPoint x="600" y="740" as="sourcePoint" />
            <mxPoint x="650" y="690" as="targetPoint" />
          </mxGeometry>
        </mxCell>
        <mxCell id="129" value="" style="endArrow=none;html=1;rounded=0;exitX=1;exitY=0.5;exitDx=0;exitDy=0;entryX=0;entryY=0.5;entryDx=0;entryDy=0;" parent="1" source="32" target="52" edge="1">
          <mxGeometry width="50" height="50" relative="1" as="geometry">
            <mxPoint x="740" y="820" as="sourcePoint" />
            <mxPoint x="790" y="770" as="targetPoint" />
          </mxGeometry>
        </mxCell>
        <mxCell id="130" value="" style="endArrow=none;html=1;rounded=0;entryX=1;entryY=0.5;entryDx=0;entryDy=0;exitX=0;exitY=0.5;exitDx=0;exitDy=0;" parent="1" source="52" target="33" edge="1">
          <mxGeometry width="50" height="50" relative="1" as="geometry">
            <mxPoint x="740" y="870" as="sourcePoint" />
            <mxPoint x="790" y="820" as="targetPoint" />
            <Array as="points" />
          </mxGeometry>
        </mxCell>
        <mxCell id="133" value="" style="endArrow=none;html=1;rounded=0;exitX=1;exitY=0.5;exitDx=0;exitDy=0;entryX=0;entryY=0.7;entryDx=0;entryDy=0;" parent="1" source="35" target="52" edge="1">
          <mxGeometry width="50" height="50" relative="1" as="geometry">
            <mxPoint x="920" y="1640" as="sourcePoint" />
            <mxPoint x="1190" y="890" as="targetPoint" />
          </mxGeometry>
        </mxCell>
        <mxCell id="134" value="" style="endArrow=none;html=1;rounded=0;exitX=1;exitY=0.5;exitDx=0;exitDy=0;entryX=0;entryY=0.7;entryDx=0;entryDy=0;" parent="1" source="36" target="52" edge="1">
          <mxGeometry width="50" height="50" relative="1" as="geometry">
            <mxPoint x="950" y="1210" as="sourcePoint" />
            <mxPoint x="1000" y="1160" as="targetPoint" />
          </mxGeometry>
        </mxCell>
        <mxCell id="135" value="" style="endArrow=none;html=1;rounded=0;exitX=1;exitY=0.5;exitDx=0;exitDy=0;entryX=0;entryY=0.7;entryDx=0;entryDy=0;" parent="1" source="37" target="52" edge="1">
          <mxGeometry width="50" height="50" relative="1" as="geometry">
            <mxPoint x="950" y="1210" as="sourcePoint" />
            <mxPoint x="1000" y="1160" as="targetPoint" />
          </mxGeometry>
        </mxCell>
        <mxCell id="136" value="" style="endArrow=none;html=1;rounded=0;exitX=1;exitY=0.5;exitDx=0;exitDy=0;entryX=0;entryY=0.7;entryDx=0;entryDy=0;" parent="1" source="38" target="52" edge="1">
          <mxGeometry width="50" height="50" relative="1" as="geometry">
            <mxPoint x="950" y="1210" as="sourcePoint" />
            <mxPoint x="1000" y="1160" as="targetPoint" />
          </mxGeometry>
        </mxCell>
        <mxCell id="137" value="" style="endArrow=none;html=1;rounded=0;exitX=1;exitY=0.5;exitDx=0;exitDy=0;entryX=0;entryY=0.7;entryDx=0;entryDy=0;" parent="1" source="39" target="52" edge="1">
          <mxGeometry width="50" height="50" relative="1" as="geometry">
            <mxPoint x="950" y="1210" as="sourcePoint" />
            <mxPoint x="1130" y="1050" as="targetPoint" />
          </mxGeometry>
        </mxCell>
        <mxCell id="138" value="" style="endArrow=none;html=1;rounded=0;exitX=1;exitY=0.5;exitDx=0;exitDy=0;entryX=0;entryY=0.7;entryDx=0;entryDy=0;" parent="1" source="44" target="52" edge="1">
          <mxGeometry width="50" height="50" relative="1" as="geometry">
            <mxPoint x="950" y="1460" as="sourcePoint" />
            <mxPoint x="1150" y="930" as="targetPoint" />
          </mxGeometry>
        </mxCell>
        <mxCell id="139" value="" style="endArrow=none;html=1;rounded=0;exitX=1;exitY=0.5;exitDx=0;exitDy=0;entryX=0;entryY=0.7;entryDx=0;entryDy=0;" parent="1" source="40" target="52" edge="1">
          <mxGeometry width="50" height="50" relative="1" as="geometry">
            <mxPoint x="950" y="1460" as="sourcePoint" />
            <mxPoint x="1200" y="960" as="targetPoint" />
          </mxGeometry>
        </mxCell>
        <mxCell id="140" value="" style="endArrow=none;html=1;rounded=0;exitX=1;exitY=0.5;exitDx=0;exitDy=0;entryX=0;entryY=0.7;entryDx=0;entryDy=0;" parent="1" source="45" target="52" edge="1">
          <mxGeometry width="50" height="50" relative="1" as="geometry">
            <mxPoint x="950" y="1460" as="sourcePoint" />
            <mxPoint x="1000" y="1410" as="targetPoint" />
          </mxGeometry>
        </mxCell>
        <mxCell id="141" value="" style="endArrow=none;html=1;rounded=0;exitX=1;exitY=0.5;exitDx=0;exitDy=0;entryX=0;entryY=0.7;entryDx=0;entryDy=0;" parent="1" source="46" target="52" edge="1">
          <mxGeometry width="50" height="50" relative="1" as="geometry">
            <mxPoint x="950" y="1460" as="sourcePoint" />
            <mxPoint x="1170" y="910" as="targetPoint" />
          </mxGeometry>
        </mxCell>
        <mxCell id="142" value="" style="endArrow=none;html=1;rounded=0;exitX=1;exitY=0.5;exitDx=0;exitDy=0;entryX=0;entryY=0.7;entryDx=0;entryDy=0;" parent="1" source="47" target="52" edge="1">
          <mxGeometry width="50" height="50" relative="1" as="geometry">
            <mxPoint x="950" y="1650" as="sourcePoint" />
            <mxPoint x="1280" y="1020" as="targetPoint" />
          </mxGeometry>
        </mxCell>
        <mxCell id="144" value="" style="endArrow=none;html=1;rounded=0;entryX=1;entryY=0.5;entryDx=0;entryDy=0;exitX=0.125;exitY=0.039;exitDx=0;exitDy=0;exitPerimeter=0;" parent="1" source="52" target="14" edge="1">
          <mxGeometry width="50" height="50" relative="1" as="geometry">
            <mxPoint x="1320" y="490" as="sourcePoint" />
            <mxPoint x="970" y="370" as="targetPoint" />
          </mxGeometry>
        </mxCell>
      </root>
    </mxGraphModel>
  </diagram>
</mxfile>
